<svg id="Camada_2" data-name="Camada 2" xmlns="http://www.w3.org/2000/svg" xmlns:xlink="http://www.w3.org/1999/xlink" viewBox="0 0 389.71 389.75"><defs><style>.cls-1{fill:#ef9223;}.cls-2{fill:#fff;}.cls-3{fill:url(#linear-gradient);}.cls-4{fill:url(#Gradiente_sem_nome_31);}</style><linearGradient id="linear-gradient" x1="370.02" y1="446.63" x2="284.79" y2="586.26" gradientTransform="matrix(0.21, 0.57, -0.98, 0.35, 786.36, 194.26)" gradientUnits="userSpaceOnUse"><stop offset="0" stop-color="#a5c63f"/><stop offset="0.14" stop-color="#98c241"/><stop offset="0.39" stop-color="#75b647"/><stop offset="0.56" stop-color="#5bae4b"/><stop offset="0.64" stop-color="#54a94a"/><stop offset="0.75" stop-color="#429a46"/><stop offset="0.88" stop-color="#248340"/><stop offset="1" stop-color="#03693a"/></linearGradient><linearGradient id="Gradiente_sem_nome_31" x1="205.22" y1="394.28" x2="263.05" y2="394.28" gradientTransform="translate(-64.91 47.39) rotate(-9.97)" gradientUnits="userSpaceOnUse"><stop offset="0" stop-color="#03693a"/><stop offset="0.18" stop-color="#56ac4a"/><stop offset="0.29" stop-color="#58ad4a"/><stop offset="0.35" stop-color="#52a649"/><stop offset="0.44" stop-color="#409444"/><stop offset="0.46" stop-color="#3a8e43"/><stop offset="0.85" stop-color="#8bba1b"/></linearGradient></defs><path class="cls-1" d="M494.88,468.08C468.85,572.49,363.11,636,258.7,610S90.8,478.21,116.84,373.83,248.59,205.87,353,231.9,520.9,363.69,494.88,468.08Z" transform="translate(-111 -226.07)"/><path class="cls-2" d="M391.77,393.18c3.89-25.93-15.86-39.87-42.86-49.17l8.76-35.12-21.38-5.33-8.52,34.2c-5.62-1.4-11.4-2.72-17.13-4l8.59-34.43L297.86,294l-8.76,35.12c-4.66-1.06-9.23-2.11-13.66-3.21l0-.11L246,318.41l-5.69,22.83s15.87,3.64,15.53,3.86c8.66,2.17,10.23,7.9,10,12.44l-10,40a19.14,19.14,0,0,1,2.22.72l-2.26-.56-14,56.06c-1.06,2.62-3.75,6.57-9.8,5.07.21.31-15.54-3.88-15.54-3.88l-10.62,24.49,27.83,6.94c5.17,1.29,10.25,2.65,15.24,3.93l-8.85,35.52,21.36,5.33L270.17,496c5.83,1.59,11.49,3.05,17,4.43l-8.73,35,21.38,5.33,8.85-35.45c36.45,6.9,63.87,4.11,75.41-28.86,9.3-26.55-.46-41.87-19.64-51.86C378.45,421.35,389,412.17,391.77,393.18Zm-48.85,68.5c-6.6,26.55-51.31,12.2-65.81,8.6l11.75-47.07C303.35,426.83,349.83,434,342.92,461.68Zm6.62-68.88c-6,24.15-43.24,11.88-55.31,8.87L304.88,359C316.94,362,355.82,367.6,349.54,392.8Z" transform="translate(-111 -226.07)"/><path class="cls-3" d="M331,531.65c-8.39,4.09-34.3,18-45.77,20.48-7.36,2.08-14.53,2.6-10.64-5.93-15.49,22.46,33.09,4.21,84.15,7.08,1.71.1,37.35-14.52,39.06-14.37,1,.08-32,14.91-31,15a133.68,133.68,0,0,1,23.54,4.44c.78.23,26.68-6.77,27.45-6.53s-23.8,7.65-23.14,7.87c8,2.67,20.66,9.52,27.71,14.37-4.47-2.09-17.76-8-25.7-10l7.51,15.08S392.08,563,391.1,562.74c-4-.83-19.57-3.12-41.26-3.13-1.34,0,13,20.7,11.61,20.72s-18.69-20.65-20.21-20.61a287.41,287.41,0,0,0-51.05,5.86c-4.83,84.23,161.83,24.22,202.32,9.87C437.46,573.63,425.18,485.46,331,531.65Z" transform="translate(-111 -226.07)"/><path class="cls-4" d="M215.68,415.37l1.9-7.16,25.32,12.85-2.07,7.81L230.32,430a63.58,63.58,0,0,1-7.57.54q5.66,2.58,11.47,5.58l4.13,2.1-1.9,7.17-25.32-12.85,2.07-7.81,10.5-1.12c3.38-.35,5.91-.52,7.61-.53q-5.72-2.64-11.51-5.59Z" transform="translate(-111 -226.07)"/><path class="cls-4" d="M230.51,386.51l-3.62,13.65,3.35,1.69,3.3-12.44,5.91,3-3.31,12.48,3.42,1.71,3.62-13.64,6.33,3.21-5.62,21.18-25.33-12.85,5.62-21.18Z" transform="translate(-111 -226.07)"/><path class="cls-4" d="M232.37,352.43l2.11-8,23.41,20L255.65,373l-7.94-2.15Q243.5,369.67,238,368q3.22,2.3,8.76,6.52l7.06,5.46-2.24,8.45-27.25-5.58,2.07-7.8,7.76,1.94q5.81,1.41,10.77,2.89-4-2.79-9.64-7.15l-6.88-5.26,2-7.43,7.72,2.09q6,1.67,10.67,3.15-3.41-2.55-9.54-7.41Z" transform="translate(-111 -226.07)"/></svg>